<?xml version="1.0" standalone="no"?>
<!DOCTYPE svg PUBLIC "-//W3C//DTD SVG 20010904//EN"
 "http://www.w3.org/TR/2001/REC-SVG-20010904/DTD/svg10.dtd">
<svg version="1.0" xmlns="http://www.w3.org/2000/svg"
 width="500.000000pt" height="500.000000pt" viewBox="0 0 500.000000 500.000000"
 preserveAspectRatio="xMidYMid meet">

<g transform="translate(0.000000,500.000000) scale(0.100000,-0.100000)"
fill="#000000" stroke="none">
<path d="M425 4990 c-11 -5 -45 -16 -75 -25 -149 -46 -275 -179 -328 -347 -15
-49 -17 -225 -19 -2108 -3 -2049 -3 -2054 18 -2129 26 -96 68 -170 134 -235
65 -63 127 -98 225 -125 74 -21 82 -21 2120 -21 2038 0 2046 0 2120 21 100 27
162 63 229 130 67 67 103 129 130 229 21 74 21 82 21 2120 0 2038 0 2046 -21
2120 -26 97 -68 168 -135 234 -67 65 -126 98 -224 125 -74 21 -81 21 -2125 20
-1127 0 -2059 -4 -2070 -9z m1852 -855 c29 -29 34 -40 28 -63 -9 -36 -39 -68
-92 -93 -91 -44 -116 -140 -73 -281 17 -56 470 -1084 510 -1157 5 -10 82 134
239 447 261 522 292 593 316 711 31 150 5 240 -79 280 -52 25 -82 57 -91 93
-6 23 -1 34 28 63 l35 35 422 0 422 0 34 -34 c19 -19 34 -42 34 -52 0 -35 -38
-81 -91 -111 -98 -55 -191 -172 -321 -403 -36 -63 -226 -418 -422 -788 l-358
-673 4 -437 c4 -382 7 -444 22 -492 22 -68 82 -129 146 -149 72 -23 99 -39
115 -71 22 -42 19 -58 -19 -96 l-34 -34 -610 0 -610 0 -31 26 c-25 21 -31 33
-31 65 0 52 29 82 101 103 111 32 161 93 180 218 5 35 9 247 9 471 l0 408
-361 762 c-384 810 -415 872 -491 984 -45 64 -108 123 -134 123 -17 0 -62 54
-69 82 -6 23 -1 34 28 63 l35 35 587 0 587 0 35 -35z"/>
</g>
</svg>
