<?xml version="1.0" standalone="no"?>
<!DOCTYPE svg PUBLIC "-//W3C//DTD SVG 20010904//EN"
 "http://www.w3.org/TR/2001/REC-SVG-20010904/DTD/svg10.dtd">
<svg version="1.0" xmlns="http://www.w3.org/2000/svg"
 width="1634.000000pt" height="500.000000pt" viewBox="0 0 1634.000000 500.000000"
 preserveAspectRatio="xMidYMid meet">

<g transform="translate(0.000000,500.000000) scale(0.100000,-0.100000)"
fill="#000000" stroke="none">
<path d="M425 4990 c-11 -5 -45 -16 -75 -25 -149 -46 -275 -179 -328 -347 -15
-49 -17 -225 -19 -2108 -3 -2049 -3 -2054 18 -2129 26 -96 68 -170 134 -235
65 -63 127 -98 225 -125 74 -21 82 -21 2120 -21 2038 0 2046 0 2120 21 100 27
162 63 229 130 67 67 103 129 130 229 21 74 21 82 21 2120 0 2038 0 2046 -21
2120 -26 97 -68 168 -135 234 -67 65 -126 98 -224 125 -74 21 -81 21 -2125 20
-1127 0 -2059 -4 -2070 -9z m1852 -855 c29 -29 34 -40 28 -63 -9 -36 -39 -68
-92 -93 -91 -44 -116 -140 -73 -281 17 -56 470 -1084 510 -1157 5 -10 82 134
239 447 261 522 292 593 316 711 31 150 5 240 -79 280 -52 25 -82 57 -91 93
-6 23 -1 34 28 63 l35 35 422 0 422 0 34 -34 c19 -19 34 -42 34 -52 0 -35 -38
-81 -91 -111 -98 -55 -191 -172 -321 -403 -36 -63 -226 -418 -422 -788 l-358
-673 4 -437 c4 -382 7 -444 22 -492 22 -68 82 -129 146 -149 72 -23 99 -39
115 -71 22 -42 19 -58 -19 -96 l-34 -34 -610 0 -610 0 -31 26 c-25 21 -31 33
-31 65 0 52 29 82 101 103 111 32 161 93 180 218 5 35 9 247 9 471 l0 408
-361 762 c-384 810 -415 872 -491 984 -45 64 -108 123 -134 123 -17 0 -62 54
-69 82 -6 23 -1 34 28 63 l35 35 587 0 587 0 35 -35z"/>
<path d="M7995 4713 c-60 -15 -91 -83 -105 -233 -15 -150 -37 -243 -114 -475
-188 -562 -482 -1195 -717 -1541 -173 -254 -345 -401 -510 -436 -51 -10 -60
-9 -102 11 -86 42 -122 164 -98 330 48 329 305 889 694 1515 86 137 87 140 87
204 0 57 -3 67 -29 93 -55 55 -141 32 -198 -53 -95 -138 -388 -706 -491 -949
-132 -313 -207 -557 -233 -763 -20 -164 0 -329 51 -429 29 -57 96 -125 145
-148 85 -40 263 -18 372 45 l42 24 -75 -151 c-42 -84 -77 -153 -79 -155 -1 -1
-44 -9 -96 -17 -203 -30 -412 -114 -591 -237 -105 -72 -259 -219 -336 -323
-64 -85 -147 -251 -163 -324 -6 -29 -9 -102 -7 -161 3 -102 5 -111 34 -152 16
-24 50 -54 74 -68 41 -23 56 -25 160 -25 111 0 117 1 190 36 232 111 459 392
759 936 l72 131 30 -8 c81 -23 140 -83 199 -201 22 -44 49 -88 60 -99 29 -29
91 -27 126 4 24 20 28 32 32 89 4 58 0 74 -25 129 -54 113 -162 212 -279 254
l-51 18 105 205 c168 331 269 516 367 676 259 425 479 898 700 1506 117 323
151 467 143 610 -5 77 -7 84 -37 111 -30 27 -58 33 -106 21z m-1518 -3405
c-330 -610 -646 -940 -817 -851 -78 41 -94 137 -43 260 119 281 438 542 793
647 47 14 91 25 98 25 9 1 -2 -29 -31 -81z"/>
<path d="M14586 4415 c-130 -46 -300 -228 -476 -508 -138 -219 -311 -560 -440
-864 l-43 -102 -176 -90 c-285 -145 -702 -321 -759 -321 -11 0 -31 -9 -46 -21
-22 -17 -26 -28 -26 -73 0 -44 4 -56 28 -79 43 -42 104 -37 239 17 148 60 375
165 510 237 62 32 115 59 117 59 2 0 -8 -33 -24 -72 -74 -195 -209 -643 -210
-698 -1 -32 -21 -41 -140 -60 -215 -35 -408 -90 -588 -166 -115 -49 -132 -65
-132 -125 0 -60 23 -79 92 -79 37 0 68 10 130 41 143 72 392 144 569 165 52 6
57 5 86 -25 21 -21 41 -31 61 -31 35 0 82 34 82 60 0 56 550 26 935 -51 326
-65 607 -159 866 -290 167 -85 216 -96 279 -64 39 20 50 43 50 109 0 90 -46
127 -220 175 -307 84 -657 176 -773 201 -338 75 -633 112 -908 114 l-196 1 29
110 c42 160 140 472 209 665 l60 166 193 128 c107 70 243 166 302 213 138 108
350 321 437 438 76 101 158 260 182 350 22 84 31 300 15 349 -17 53 -74 113
-118 126 -52 14 -150 12 -196 -5z m119 -215 c48 -93 -17 -318 -147 -507 -67
-98 -236 -274 -353 -367 -108 -87 -306 -228 -312 -222 -12 11 203 448 302 615
141 237 307 425 428 482 34 16 63 29 64 29 1 0 9 -13 18 -30z"/>
<path d="M14900 3418 c-62 -35 -169 -140 -212 -207 -35 -55 -38 -119 -8 -146
26 -24 97 -14 159 22 62 35 207 181 226 226 17 42 19 90 5 118 -18 32 -102 26
-170 -13z"/>
<path d="M15818 3053 c-23 -21 -66 -76 -96 -123 -144 -222 -394 -544 -491
-631 -63 -57 -153 -115 -186 -121 -15 -2 -21 3 -23 25 -8 66 203 414 344 566
42 46 84 102 95 125 25 55 25 137 1 159 -23 21 -93 22 -131 2 -48 -24 -123
-118 -180 -223 -45 -86 -66 -111 -144 -184 -253 -232 -572 -476 -694 -530 -35
-15 -47 -17 -59 -8 -39 33 11 187 127 385 69 119 81 135 180 221 133 116 142
130 143 212 1 58 -2 66 -27 88 -22 19 -40 24 -80 24 -94 0 -151 -60 -280 -296
-91 -166 -150 -292 -188 -404 -28 -82 -33 -109 -33 -200 -1 -118 9 -145 67
-180 66 -41 167 -19 307 66 91 55 273 188 364 267 50 44 58 48 52 27 -4 -14
-10 -64 -13 -111 -8 -135 28 -179 150 -179 96 0 175 42 296 155 l71 67 0 -36
c0 -27 8 -45 34 -74 34 -37 35 -37 108 -36 174 4 398 137 666 398 117 115 132
133 132 162 0 45 -30 74 -76 74 -33 0 -48 -11 -141 -100 -212 -205 -473 -390
-549 -390 -22 0 -16 39 19 120 65 149 114 219 251 360 150 154 182 204 173
278 -7 60 -32 82 -98 82 -42 0 -54 -5 -91 -37z"/>
<path d="M8170 3033 c-185 -31 -455 -222 -589 -417 -111 -161 -149 -356 -87
-448 40 -59 78 -73 201 -73 127 0 191 17 288 76 34 20 65 35 70 32 4 -2 7 -14
7 -27 0 -28 36 -82 73 -110 20 -14 47 -21 95 -24 118 -7 247 52 451 206 46 34
85 61 87 59 2 -1 -6 -32 -17 -67 -38 -121 -7 -190 84 -190 l50 0 176 179 c175
177 298 284 372 321 21 11 41 20 44 20 12 0 3 -84 -26 -239 -62 -331 -27 -458
130 -469 76 -5 118 9 216 73 78 51 140 103 303 252 l79 73 5 -65 c7 -80 34
-126 95 -162 76 -44 228 -43 348 3 10 4 -17 -60 -71 -169 l-88 -175 -55 -7
c-296 -34 -597 -181 -811 -395 -202 -202 -300 -407 -287 -600 6 -95 29 -152
79 -194 47 -41 102 -56 200 -56 304 1 539 241 887 905 l106 202 40 -12 c97
-29 153 -81 211 -197 51 -103 67 -118 124 -118 65 0 92 30 98 109 11 152 -133
306 -325 346 -38 8 -71 15 -75 15 -4 0 34 80 85 178 126 242 107 218 148 193
45 -28 154 -29 230 -2 180 62 426 231 641 441 113 110 118 117 118 156 0 50
-14 64 -61 64 -41 0 -34 5 -264 -195 -226 -196 -426 -326 -525 -341 -32 -5
-37 -3 -48 20 -21 46 -14 74 38 145 38 53 50 77 50 106 0 52 -15 73 -60 85
-91 25 -163 -22 -229 -149 -49 -95 -94 -137 -206 -192 -131 -64 -209 -63 -242
5 -14 30 -15 43 -4 89 14 63 58 159 102 224 48 70 163 187 238 242 81 61 227
133 260 129 29 -4 60 -58 68 -120 8 -59 27 -78 79 -78 35 0 47 5 68 31 23 26
26 40 26 100 0 106 -29 163 -102 200 -51 26 -193 26 -276 0 -169 -52 -348
-196 -492 -396 -121 -167 -489 -508 -622 -576 -45 -23 -63 -17 -77 23 -20 56
-12 147 29 337 36 167 40 194 30 236 -22 98 -76 140 -171 133 -80 -6 -134 -45
-337 -243 l-165 -160 53 90 c92 156 152 238 222 304 38 35 77 78 88 96 25 41
26 106 2 128 -25 23 -93 31 -135 18 -51 -17 -144 -121 -191 -214 -22 -42 -43
-77 -48 -77 -4 0 -59 -49 -121 -108 -203 -195 -351 -309 -486 -377 -92 -46
-117 -46 -137 1 -14 33 -14 42 1 88 18 56 38 84 133 193 61 70 63 75 61 122
-2 40 2 54 24 81 22 26 27 41 27 88 0 31 -5 75 -11 97 -14 51 -73 110 -124
124 -39 11 -124 13 -175 4z m84 -195 c17 -110 15 -124 -19 -151 -20 -16 -53
-66 -85 -129 -57 -112 -75 -131 -195 -211 -92 -62 -165 -95 -229 -103 -145
-20 -100 186 83 379 114 120 321 244 413 246 23 1 28 -4 32 -31z m2099 -1375
c-277 -509 -513 -804 -689 -860 -99 -31 -174 8 -194 100 -11 46 -9 60 10 117
83 248 365 514 683 641 45 19 199 66 219 68 4 1 -9 -29 -29 -66z"/>
</g>
</svg>
