<?xml version="1.0" standalone="no"?>
<!DOCTYPE svg PUBLIC "-//W3C//DTD SVG 20010904//EN"
 "http://www.w3.org/TR/2001/REC-SVG-20010904/DTD/svg10.dtd">
<svg version="1.0" xmlns="http://www.w3.org/2000/svg"
 width="2500.000000pt" height="500.000000pt" viewBox="0 0 2500.000000 500.000000"
 preserveAspectRatio="xMidYMid meet">

<g transform="translate(0.000000,500.000000) scale(0.100000,-0.100000)"
fill="#283149" stroke="none">
<path d="M425 4990 c-11 -5 -45 -16 -75 -25 -149 -46 -275 -179 -328 -347 -15
-49 -17 -225 -19 -2108 -3 -2049 -3 -2054 18 -2129 26 -96 68 -170 134 -235
65 -63 127 -98 225 -125 74 -21 82 -21 2120 -21 2038 0 2046 0 2120 21 100 27
162 63 229 130 67 67 103 129 130 229 21 74 21 82 21 2120 0 2038 0 2046 -21
2120 -26 97 -68 168 -135 234 -67 65 -126 98 -224 125 -74 21 -81 21 -2125 20
-1127 0 -2059 -4 -2070 -9z m1852 -855 c29 -29 34 -40 28 -63 -9 -36 -39 -68
-92 -93 -91 -44 -116 -140 -73 -281 17 -56 470 -1084 510 -1157 5 -10 82 134
239 447 261 522 292 593 316 711 31 150 5 240 -79 280 -52 25 -82 57 -91 93
-6 23 -1 34 28 63 l35 35 422 0 422 0 34 -34 c19 -19 34 -42 34 -52 0 -35 -38
-81 -91 -111 -98 -55 -191 -172 -321 -403 -36 -63 -226 -418 -422 -788 l-358
-673 4 -437 c4 -382 7 -444 22 -492 22 -68 82 -129 146 -149 72 -23 99 -39
115 -71 22 -42 19 -58 -19 -96 l-34 -34 -610 0 -610 0 -31 26 c-25 21 -31 33
-31 65 0 52 29 82 101 103 111 32 161 93 180 218 5 35 9 247 9 471 l0 408
-361 762 c-384 810 -415 872 -491 984 -45 64 -108 123 -134 123 -17 0 -62 54
-69 82 -6 23 -1 34 28 63 l35 35 587 0 587 0 35 -35z"/>
<path d="M20230 4594 c-84 -23 -245 -106 -350 -181 -183 -131 -446 -410 -851
-903 -381 -466 -368 -451 -417 -473 -42 -19 -65 -21 -222 -21 -275 0 -464 35
-638 120 -250 121 -352 348 -276 610 69 241 240 454 467 585 103 60 107 64
107 121 0 39 -5 54 -25 73 -39 40 -94 34 -189 -20 -107 -61 -169 -110 -270
-215 -206 -214 -306 -444 -306 -704 0 -213 43 -327 174 -463 43 -46 104 -99
135 -120 158 -105 399 -167 703 -181 100 -5 153 -11 155 -19 10 -30 -377 -411
-597 -589 -178 -143 -472 -318 -567 -338 -21 -5 -123 12 -325 54 -540 113
-812 146 -986 121 -143 -21 -273 -96 -318 -183 -26 -50 -15 -133 25 -191 61
-89 198 -169 356 -209 78 -19 116 -22 285 -22 309 0 582 54 885 174 93 37 118
38 285 11 549 -89 1075 -78 1462 29 273 76 617 249 751 378 32 31 37 42 37 82
0 55 -28 88 -81 96 -39 5 -41 4 -181 -92 -261 -181 -561 -295 -888 -339 -170
-23 -449 -30 -625 -15 -196 16 -308 32 -312 46 -2 6 38 37 88 69 250 158 588
466 887 806 51 58 110 116 132 128 25 14 78 28 142 37 471 69 888 282 1265
648 170 164 244 252 343 401 139 211 208 393 198 520 -7 77 -28 118 -80 153
-40 26 -47 27 -182 29 -100 1 -157 -2 -196 -13z m253 -226 c-1 -34 -16 -77
-52 -153 -129 -272 -345 -526 -643 -757 -182 -142 -399 -257 -628 -332 -172
-56 -196 -61 -203 -43 -5 14 135 192 431 547 375 450 635 679 859 756 81 28
110 34 168 32 l70 -3 -2 -47z m-4126 -2528 c158 -21 337 -54 468 -88 l70 -18
-85 -23 c-303 -83 -538 -97 -734 -46 -127 33 -256 101 -256 134 0 31 126 59
267 60 62 1 183 -8 270 -19z"/>
<path d="M7535 4180 c-380 -99 -764 -314 -990 -551 -102 -108 -156 -193 -186
-292 -29 -95 -24 -267 10 -345 38 -85 115 -109 172 -53 35 36 37 65 8 146 -40
113 -10 220 100 358 134 169 447 369 755 482 97 36 362 108 377 103 4 -2 -26
-47 -67 -100 -90 -120 -206 -314 -255 -428 -61 -143 -80 -221 -86 -361 -10
-220 34 -339 171 -465 125 -117 232 -163 396 -171 235 -12 421 77 650 314 58
59 137 150 175 201 37 50 70 92 71 92 3 0 -103 -307 -121 -352 -4 -10 -48 -51
-98 -91 -165 -133 -339 -292 -498 -453 -281 -287 -389 -463 -389 -634 0 -88
15 -124 73 -177 90 -83 236 -96 355 -33 154 82 328 322 490 674 65 142 205
488 217 538 12 47 144 151 290 229 44 23 86 49 93 57 6 9 12 39 12 68 0 45 -4
56 -26 73 -38 30 -83 26 -160 -14 -37 -19 -69 -33 -71 -31 -2 2 17 71 42 152
98 314 225 791 225 843 0 66 -73 107 -141 78 -31 -13 -41 -29 -112 -185 -308
-669 -651 -1077 -968 -1149 -114 -25 -219 3 -336 91 -101 77 -153 177 -153
295 0 109 64 312 143 451 45 81 177 274 242 355 31 39 61 80 66 93 22 57 3
138 -42 178 -39 34 -85 44 -208 44 -95 -1 -136 -6 -226 -30z m970 -1966 c-161
-369 -319 -606 -451 -674 -40 -20 -43 -20 -82 -4 -23 9 -44 24 -47 34 -14 44
35 148 126 271 69 93 500 530 506 513 2 -7 -21 -69 -52 -140z"/>
<path d="M20000 2689 c-19 -17 -53 -43 -75 -57 -75 -49 -85 -61 -85 -111 1
-61 24 -91 77 -98 51 -7 115 26 197 99 55 48 56 51 56 103 0 46 -4 57 -26 74
-41 32 -100 28 -144 -10z"/>
<path d="M13436 2524 c-142 -31 -268 -107 -391 -236 -325 -340 -697 -533 -942
-489 -137 24 -234 94 -333 240 -101 149 -160 191 -268 191 -111 0 -225 -49
-361 -155 -39 -31 -71 -53 -71 -48 0 4 9 45 20 91 27 112 26 147 -5 177 -34
35 -112 35 -143 2 -12 -13 -22 -30 -22 -38 0 -27 -31 -59 -129 -133 -263 -199
-500 -316 -705 -348 -126 -19 -259 10 -359 79 -81 56 -155 192 -196 358 -15
59 -23 74 -51 93 -27 18 -29 22 -13 22 11 0 32 9 47 21 22 17 26 28 26 73 0
101 -69 122 -220 67 -198 -73 -366 -220 -468 -411 -59 -110 -76 -176 -69 -279
11 -179 75 -261 205 -261 109 0 233 90 358 259 32 45 66 81 74 81 8 0 37 -29
63 -65 173 -234 520 -301 877 -168 122 45 285 129 390 199 45 30 84 54 85 52
1 -2 -8 -48 -21 -103 -31 -133 -30 -150 5 -186 23 -22 39 -29 70 -29 46 0 54
6 162 129 133 151 291 276 396 312 51 19 57 19 80 4 14 -9 37 -37 51 -62 82
-138 204 -257 319 -310 143 -66 372 -71 554 -12 96 31 253 109 345 171 l82 54
5 -54 c6 -61 41 -119 91 -155 46 -33 169 -37 229 -8 42 20 124 98 175 166 21
27 22 28 16 6 -3 -13 -43 -74 -88 -135 -221 -298 -371 -560 -443 -775 -30 -88
-37 -125 -41 -216 -6 -140 5 -179 66 -246 41 -44 53 -52 93 -56 70 -8 111 11
174 78 89 97 182 306 279 628 46 153 107 407 127 526 6 39 18 81 26 93 18 29
209 246 252 287 l32 30 78 -43 c110 -59 207 -82 346 -82 194 0 347 56 472 174
60 56 63 60 63 106 0 42 -4 52 -32 75 -47 40 -92 31 -164 -33 -109 -97 -227
-138 -375 -130 -96 6 -157 29 -265 99 -53 34 -68 39 -118 39 -73 0 -85 -7
-173 -93 -40 -39 -75 -68 -79 -64 -4 3 -11 48 -16 99 -5 52 -17 109 -27 131
-17 34 -17 37 -1 37 34 0 60 43 60 97 0 90 -51 109 -204 77z m-56 -274 c-29
-73 -107 -225 -151 -296 -39 -61 -109 -134 -129 -134 -17 0 -32 53 -25 90 12
63 83 196 136 254 44 49 161 136 181 136 4 0 -1 -22 -12 -50z m-4040 23 c0
-18 -140 -271 -204 -368 -75 -113 -117 -165 -135 -165 -6 0 -15 19 -21 41 -16
59 1 122 61 222 59 98 130 174 219 233 64 43 80 50 80 37z m3949 -1019 c-22
-71 -61 -183 -86 -249 -50 -135 -172 -395 -185 -395 -26 0 4 133 63 281 69
176 235 507 247 495 1 -2 -16 -62 -39 -132z"/>
<path d="M19947 2340 c-87 -103 -125 -397 -68 -528 45 -101 193 -207 346 -247
73 -20 272 -22 364 -5 200 37 434 147 644 304 l86 64 -5 -42 c-10 -68 12 -148
49 -183 50 -47 76 -57 152 -57 109 1 194 46 332 177 43 41 78 67 87 64 7 -3
17 -22 21 -43 18 -100 115 -212 227 -264 167 -78 433 -55 708 61 248 106 502
274 697 463 83 81 83 81 83 132 0 67 -26 94 -94 94 -45 0 -50 -3 -135 -83
-168 -160 -334 -274 -556 -383 -187 -91 -296 -125 -430 -131 -85 -4 -108 -2
-156 16 -72 27 -133 84 -148 136 -18 66 -13 165 14 269 33 126 32 160 -1 191
-20 19 -38 25 -71 25 -52 0 -61 -8 -148 -130 -109 -153 -369 -400 -422 -400
-34 0 7 141 88 302 30 61 49 111 49 132 0 49 -34 86 -87 93 -39 5 -46 2 -79
-31 -20 -20 -41 -36 -46 -36 -6 0 -39 -27 -74 -60 -171 -160 -362 -294 -539
-380 -287 -139 -479 -154 -668 -52 -82 44 -113 81 -123 150 -8 53 14 153 52
241 28 62 30 91 9 130 -17 34 -33 41 -90 41 -36 0 -48 -5 -68 -30z"/>
</g>
</svg>
